<?xml version="1.0" encoding="UTF-8"?>
<svg xmlns="http://www.w3.org/2000/svg" viewBox="0 0 800 400" width="800" height="400">
  <defs>
    <linearGradient id="weaponGradient" x1="0%" y1="0%" x2="100%" y2="0%">
      <stop offset="0%" stop-color="#2b3272" />
      <stop offset="50%" stop-color="#4a61dd" />
      <stop offset="100%" stop-color="#2b3272" />
    </linearGradient>
    
    <filter id="weaponGlow" x="-20%" y="-20%" width="140%" height="140%">
      <feGaussianBlur stdDeviation="5" result="blur" />
      <feComposite in="SourceGraphic" in2="blur" operator="over" />
    </filter>
  </defs>
  
  <!-- Anime-style futuristic gun - simplified silhouette -->
  <g transform="translate(50, 180) scale(0.9)" opacity="0.9" filter="url(#weaponGlow)">
    <!-- Gun barrel -->
    <path d="M500,50 L650,50 L670,70 L670,90 L650,110 L450,110 L450,50 Z" fill="url(#weaponGradient)" />
    
    <!-- Gun body -->
    <path d="M250,50 L450,50 L450,170 L430,170 L430,190 L380,190 L380,170 L250,170 Z" fill="url(#weaponGradient)" />
    
    <!-- Handle -->
    <path d="M250,170 L280,170 L280,220 L320,250 L320,270 L250,270 Z" fill="url(#weaponGradient)" />
    
    <!-- Energy chamber -->
    <circle cx="350" cy="110" r="30" fill="#5e72e4" opacity="0.6" />
    <circle cx="350" cy="110" r="20" fill="#8a96ff" opacity="0.7" />
    
    <!-- Ammo display or energy meter -->
    <rect x="380" y="70" width="40" height="10" fill="#b6c3ff" opacity="0.8" rx="2" />
    <rect x="380" y="85" width="30" height="10" fill="#b6c3ff" opacity="0.6" rx="2" />
    <rect x="380" y="100" width="20" height="10" fill="#b6c3ff" opacity="0.4" rx="2" />
    
    <!-- Trigger -->
    <path d="M320,190 L340,190 L340,220 L320,220 Z" fill="#2b3272" />
    
    <!-- Energy vent/detail -->
    <path d="M550,70 L580,70 L580,90 L550,90 Z" fill="#8a96ff" opacity="0.5" />
    
    <!-- Barrel energy hint -->
    <path d="M670,80 L690,80 L690,85 L670,85 Z" fill="#b6c3ff" opacity="0.9" />
    
    <!-- Anime-style accent lines -->
    <path d="M280,60 L430,60" stroke="#b6c3ff" stroke-width="1" opacity="0.7" fill="none" />
    <path d="M500,60 L650,60" stroke="#b6c3ff" stroke-width="1" opacity="0.7" fill="none" />
    
    <!-- Highlighted edge details -->
    <path d="M450,50 L450,110" stroke="#8a96ff" stroke-width="2" opacity="0.9" fill="none" />
    <path d="M500,50 L500,110" stroke="#8a96ff" stroke-width="2" opacity="0.9" fill="none" />
  </g>
</svg>