<?xml version="1.0" encoding="UTF-8"?>
<svg width="1000" height="300" viewBox="0 0 1000 300" xmlns="http://www.w3.org/2000/svg">
  <defs>
    <!-- Cloud pattern -->
    <g id="cloud">
      <ellipse cx="50" cy="50" rx="50" ry="30" fill="white" opacity="0.7" />
      <ellipse cx="90" cy="40" rx="40" ry="25" fill="white" opacity="0.7" />
      <ellipse cx="130" cy="50" rx="45" ry="30" fill="white" opacity="0.7" />
      <ellipse cx="170" cy="45" rx="40" ry="25" fill="white" opacity="0.7" />
      <ellipse cx="210" cy="50" rx="40" ry="30" fill="white" opacity="0.7" />
    </g>
    
    <!-- Small cloud -->
    <g id="small-cloud">
      <ellipse cx="25" cy="25" rx="25" ry="15" fill="white" opacity="0.6" />
      <ellipse cx="45" cy="20" rx="20" ry="12" fill="white" opacity="0.6" />
      <ellipse cx="65" cy="25" rx="22" ry="15" fill="white" opacity="0.6" />
      <ellipse cx="85" cy="22" rx="20" ry="12" fill="white" opacity="0.6" />
      <ellipse cx="105" cy="25" rx="20" ry="15" fill="white" opacity="0.6" />
    </g>
  </defs>
  
  <!-- Clouds pattern across the sky -->
  <g opacity="0.9">
    <use href="#cloud" transform="translate(0, 40) scale(0.9)" />
    <use href="#cloud" transform="translate(200, 20) scale(1.1)" />
    <use href="#cloud" transform="translate(450, 50) scale(0.8)" />
    <use href="#cloud" transform="translate(700, 30) scale(1)" />
  </g>
  
  <g opacity="0.7">
    <use href="#small-cloud" transform="translate(100, 120) scale(0.9)" />
    <use href="#small-cloud" transform="translate(300, 100) scale(1.1)" />
    <use href="#small-cloud" transform="translate(550, 140) scale(0.8)" />
    <use href="#small-cloud" transform="translate(800, 110) scale(1)" />
  </g>
  
  <g opacity="0.5">
    <use href="#small-cloud" transform="translate(50, 200) scale(0.7)" />
    <use href="#small-cloud" transform="translate(350, 180) scale(0.9)" />
    <use href="#small-cloud" transform="translate(600, 220) scale(0.6)" />
    <use href="#small-cloud" transform="translate(850, 190) scale(0.8)" />
  </g>
</svg>